<svg width="123" height="132" viewBox="0 0 123 132" fill="none" xmlns="http://www.w3.org/2000/svg">
<path d="M82.0005 4.99695C78.5338 8.59696 77.3338 9.13029 73.0672 8.59696C67.3338 7.79696 66.9338 8.73029 70.2672 14.4636C72.2672 17.797 72.2672 18.8636 70.8005 23.1303C69.8672 25.6636 69.3338 28.0636 69.6005 28.4636C69.8672 28.7303 72.1338 28.3303 74.5338 27.6636C79.2005 26.3303 82.2672 27.2636 85.3338 30.8636C88.1338 34.3303 89.3338 33.2636 89.3338 27.797C89.3338 23.2636 90.0005 22.197 94.1338 19.6636C99.3338 16.3303 99.3338 16.3303 93.2005 13.2636C90.0005 11.6636 88.4005 9.53029 87.4672 5.93029L86.0005 0.863621L82.0005 4.99695Z" fill="white"/>
<path d="M29.3328 14.0646C16.7995 22.0646 5.99947 36.5979 1.99947 50.8646C-1.0672 61.5312 -0.267202 80.0646 3.86613 90.7312C10.3995 107.665 26.2661 122.865 43.3328 128.331C54.2661 131.931 72.3995 131.931 83.3328 128.331C87.7328 126.998 94.9328 123.265 99.3328 120.331C112.533 111.398 126.133 90.7312 117.066 93.6646C109.866 95.9312 91.1995 95.9312 82.6661 93.7979C51.9995 85.9312 31.0661 54.0646 35.9995 23.1312C36.7995 18.0646 37.5995 13.3979 37.7328 12.7312C38.2661 9.93124 35.0661 10.4646 29.3328 14.0646Z" fill="white"/>
<path d="M73.3339 46.0642C73.3339 47.6642 72.1339 49.6642 70.6672 50.5975C67.4672 52.5975 67.2006 54.3309 70.0006 54.3309C71.0672 54.3309 72.6672 55.9309 73.7339 57.7975C75.3339 60.8642 75.7339 60.9975 77.2006 59.1309C78.2673 57.9309 80.5339 56.9975 82.2673 56.9975C85.0673 56.9975 85.3339 56.7309 84.0006 54.9975C83.0673 53.7975 82.6673 51.6642 83.2006 49.5309C84.0006 46.3309 83.8673 46.0642 81.0673 46.7309C79.2006 47.2642 77.2006 46.7309 75.7339 45.3975C73.4672 43.3975 73.3339 43.3975 73.3339 46.0642Z" fill="white"/>
<path d="M110 46.5967C109.333 49.1301 108 50.4634 105.066 50.9967L101.066 51.9301L104 54.9967C106.133 57.3967 106.8 59.1301 106.133 61.5301C105.2 65.3967 106.133 65.7967 109.866 62.9967C111.6 61.6634 113.066 61.5301 114.8 62.3301C118.666 64.4634 119.6 63.9301 118.933 59.9301C118.666 57.5301 119.2 55.5301 120.533 54.4634C123.466 51.9301 123.2 50.3301 119.733 50.3301C118.133 50.3301 115.466 48.7301 113.866 46.5967L110.933 42.9967L110 46.5967Z" fill="white"/>
</svg>
