<svg width="369" height="369" viewBox="0 0 369 369" fill="none" xmlns="http://www.w3.org/2000/svg">
<path d="M179.668 2.46771C177.535 3.53438 175.268 5.26771 174.735 6.06771C174.201 7.00105 173.668 20.0677 173.668 35.2677V62.7344L177.801 66.201C183.135 70.7344 187.668 70.601 192.468 65.801L196.335 61.9344V35.6677C196.335 20.3344 195.801 8.46771 195.001 6.86771C193.668 4.60105 187.135 0.33438 184.735 0.33438C184.201 0.33438 181.935 1.26771 179.668 2.46771Z" fill="white"/>
<path d="M59.4006 51.9337C57.6673 52.2004 55.134 54.0671 53.534 56.0671C48.334 62.8671 50.2006 66.2004 70.8673 86.8671C81.134 97.1337 91.0006 105.934 92.734 106.334C96.6006 107.4 103.667 104.2 104.867 101C105.267 99.8004 105.667 96.7337 105.667 94.3337C105.667 90.4671 103.667 87.9337 89.4006 73.4004C67.2673 51.2671 66.4673 50.6004 59.4006 51.9337Z" fill="white"/>
<path d="M302.865 52.866C300.865 53.7993 291.132 62.9993 281.132 73.1326C261.665 93.1326 260.465 95.3993 265.665 102.066C269.265 106.599 275.399 107.933 279.665 105.133C285.132 101.533 316.599 69.266 317.799 65.9326C321.265 56.9993 311.265 48.3326 302.865 52.866Z" fill="white"/>
<path d="M174.334 93.1333C172.867 93.4 168.334 94.3333 164.334 95.1333C160.334 95.9333 151.267 99.4 144.334 102.733C122.734 113.267 105.667 132.467 98.4674 154.6C86.8674 189.533 95.5341 225.8 121.267 251.267C129.667 259.533 133.667 262.067 147.667 268.867C160.867 275.133 169.667 277 185.667 277C202.334 276.867 213.001 274.067 229.801 265.133C262.867 247.4 282.734 206.733 276.201 170.2C268.601 127.667 231.801 95 189.001 93C182.467 92.7333 175.801 92.7333 174.334 93.1333ZM197.667 116.867C236.734 125.133 262.201 163.4 253.001 199.667C245.801 227.667 225.534 247.133 197.667 253.133C186.067 255.533 181.267 255.4 169.401 252.467C157.134 249.267 144.601 242.867 138.467 236.467C121.401 219.133 116.334 207.267 116.334 185C116.334 164.333 120.867 152.6 134.601 137.667C144.201 127.533 154.601 121.4 168.867 117.667C180.334 114.6 186.334 114.467 197.667 116.867Z" fill="white"/>
<path d="M5.66632 176.597C-0.600345 180.864 -1.40035 187.531 3.66632 192.331C7.26632 195.664 7.26632 195.664 35.133 195.664C61.6663 195.664 62.9997 195.531 65.7997 192.864C69.533 188.997 69.533 180.997 65.7997 177.131C63.133 174.464 61.3997 174.331 36.5997 173.931C10.8663 173.531 10.1997 173.531 5.66632 176.597Z" fill="white"/>
<path d="M306.066 176.199C298.333 180.999 298.866 190.066 307 194.333C310.466 196.199 315.266 196.466 337 196.066C361.8 195.666 363.133 195.533 365.933 192.733C369.933 188.733 369.933 181.266 365.933 177.266C363 174.466 361.8 174.333 336.6 173.933C312.333 173.666 310.066 173.799 306.066 176.199Z" fill="white"/>
<path d="M71.5324 282.465C58.1991 295.799 51.9324 302.999 51.3991 305.799C49.9324 313.132 57.6657 320.065 65.3991 318.065C69.9324 316.999 105.266 281.532 105.932 277.399C106.732 272.732 104.466 267.399 100.999 265.132C94.1991 260.599 92.0657 261.799 71.5324 282.465Z" fill="white"/>
<path d="M266.868 266.865C259.668 274.065 260.734 276.065 282.334 297.932C293.134 308.732 303.268 317.798 305.134 318.198C312.334 320.065 320.068 312.332 318.201 304.998C317.801 303.132 308.868 293.132 298.068 282.332C276.468 260.598 274.201 259.532 266.868 266.865Z" fill="white"/>
<path d="M177.801 303.799L173.668 307.266V334.866C173.668 361.799 173.801 362.599 176.735 365.266C178.335 366.733 181.135 368.333 183.001 368.733C187.401 369.799 194.601 365.533 195.668 361.266C196.201 359.533 196.335 346.599 196.068 332.466L195.668 306.733L191.935 303.533C187.135 299.399 182.868 299.533 177.801 303.799Z" fill="white"/>
</svg>
